<svg xmlns="http://www.w3.org/2000/svg" viewBox="0 0 320 220">
  <defs>
    <linearGradient id="bg" x1="0%" x2="100%" y1="0%" y2="100%">
      <stop offset="0%" stop-color="#34d399"/>
      <stop offset="100%" stop-color="#60a5fa"/>
    </linearGradient>
  </defs>
  <rect width="320" height="220" rx="34" fill="url(#bg)"/>
  <circle cx="262" cy="52" r="42" fill="rgba(255,255,255,0.18)"/>
  <circle cx="58" cy="174" r="36" fill="rgba(255,255,255,0.14)"/>
  <rect x="34" y="34" width="252" height="152" rx="28" fill="rgba(255,255,255,0.16)" stroke="rgba(255,255,255,0.28)"/>
  <path d="M124 96c0-18 14-32 36-32s36 14 36 32v18c0 8-6 14-14 14h-8V98c0-8 6-14 14-14h4c-4-8-14-14-32-14s-28 6-32 14h4c8 0 14 6 14 14v30h-8c-8 0-14-6-14-14V96z" fill="#0f172a" opacity="0.92"/>
  <rect x="114" y="98" width="18" height="40" rx="9" fill="#fff"/>
  <rect x="188" y="98" width="18" height="40" rx="9" fill="#fff"/>
  <text x="160" y="185" text-anchor="middle" font-family="Arial, sans-serif" font-size="24" font-weight="700" fill="#111827">Audio</text>
  <text x="160" y="202" text-anchor="middle" font-family="Arial, sans-serif" font-size="12" fill="#475569">Pixel Buds</text>
</svg>
